<mxfile host="app.diagrams.net" modified="2021-06-11T10:33:33.402Z" agent="5.0 (Windows NT 10.0; Win64; x64) AppleWebKit/537.36 (KHTML, like Gecko) Chrome/91.0.4472.101 Safari/537.36" etag="Fhw9Y0OElgA0xXfJpoGB" version="14.7.7" type="github">
  <diagram id="HTqoZl6nQ_mTzUx8D8Yq" name="Page-1">
    <mxGraphModel dx="1422" dy="737" grid="1" gridSize="10" guides="1" tooltips="1" connect="1" arrows="1" fold="1" page="1" pageScale="1" pageWidth="827" pageHeight="1169" math="0" shadow="0">
      <root>
        <mxCell id="0" />
        <mxCell id="1" parent="0" />
        <mxCell id="B9jsR6x07uflWmSMTbUq-1" value="Serwer" style="text;html=1;strokeColor=none;fillColor=none;align=center;verticalAlign=middle;whiteSpace=wrap;rounded=0;" parent="1" vertex="1">
          <mxGeometry x="360" y="150" width="40" height="20" as="geometry" />
        </mxCell>
        <mxCell id="B9jsR6x07uflWmSMTbUq-3" value="Klient&lt;br&gt;" style="text;html=1;align=center;verticalAlign=middle;resizable=0;points=[];autosize=1;strokeColor=none;" parent="1" vertex="1">
          <mxGeometry x="150" y="240" width="50" height="20" as="geometry" />
        </mxCell>
        <mxCell id="B9jsR6x07uflWmSMTbUq-5" value="" style="endArrow=classic;html=1;" parent="1" edge="1">
          <mxGeometry width="50" height="50" relative="1" as="geometry">
            <mxPoint x="200" y="300" as="sourcePoint" />
            <mxPoint x="340" y="300" as="targetPoint" />
          </mxGeometry>
        </mxCell>
        <mxCell id="B9jsR6x07uflWmSMTbUq-6" value="Połączenie&lt;br&gt;" style="text;html=1;strokeColor=none;fillColor=none;align=center;verticalAlign=middle;whiteSpace=wrap;rounded=0;" parent="1" vertex="1">
          <mxGeometry x="230" y="270" width="40" height="20" as="geometry" />
        </mxCell>
        <mxCell id="B9jsR6x07uflWmSMTbUq-7" value="" style="endArrow=none;html=1;entryX=0.5;entryY=1;entryDx=0;entryDy=0;startArrow=none;" parent="1" source="B9jsR6x07uflWmSMTbUq-47" target="B9jsR6x07uflWmSMTbUq-1" edge="1">
          <mxGeometry width="50" height="50" relative="1" as="geometry">
            <mxPoint x="380" y="1130" as="sourcePoint" />
            <mxPoint x="510" y="310" as="targetPoint" />
          </mxGeometry>
        </mxCell>
        <mxCell id="B9jsR6x07uflWmSMTbUq-11" value="" style="endArrow=none;html=1;" parent="1" edge="1">
          <mxGeometry width="50" height="50" relative="1" as="geometry">
            <mxPoint x="180" y="1130" as="sourcePoint" />
            <mxPoint x="180" y="270" as="targetPoint" />
            <Array as="points">
              <mxPoint x="180" y="270" />
            </Array>
          </mxGeometry>
        </mxCell>
        <mxCell id="B9jsR6x07uflWmSMTbUq-12" value="" style="endArrow=classic;html=1;" parent="1" edge="1">
          <mxGeometry width="50" height="50" relative="1" as="geometry">
            <mxPoint x="200" y="420" as="sourcePoint" />
            <mxPoint x="340" y="420" as="targetPoint" />
            <Array as="points" />
          </mxGeometry>
        </mxCell>
        <mxCell id="B9jsR6x07uflWmSMTbUq-13" value="LOGIN12 HASŁO12" style="text;html=1;strokeColor=none;fillColor=none;align=center;verticalAlign=middle;whiteSpace=wrap;rounded=0;" parent="1" vertex="1">
          <mxGeometry x="200" y="390" width="130" height="20" as="geometry" />
        </mxCell>
        <mxCell id="B9jsR6x07uflWmSMTbUq-14" value="" style="endArrow=classic;html=1;" parent="1" edge="1">
          <mxGeometry width="50" height="50" relative="1" as="geometry">
            <mxPoint x="335" y="470" as="sourcePoint" />
            <mxPoint x="215" y="470" as="targetPoint" />
            <Array as="points">
              <mxPoint x="285" y="470" />
            </Array>
          </mxGeometry>
        </mxCell>
        <mxCell id="B9jsR6x07uflWmSMTbUq-16" value="suma kontrolna md5" style="text;html=1;strokeColor=none;fillColor=none;align=center;verticalAlign=middle;whiteSpace=wrap;rounded=0;" parent="1" vertex="1">
          <mxGeometry x="205" y="440" width="140" height="20" as="geometry" />
        </mxCell>
        <mxCell id="B9jsR6x07uflWmSMTbUq-17" value="Klient" style="text;html=1;strokeColor=none;fillColor=none;align=center;verticalAlign=middle;whiteSpace=wrap;rounded=0;" parent="1" vertex="1">
          <mxGeometry x="680" y="575" width="40" height="20" as="geometry" />
        </mxCell>
        <mxCell id="B9jsR6x07uflWmSMTbUq-18" value="" style="endArrow=none;html=1;" parent="1" edge="1">
          <mxGeometry width="50" height="50" relative="1" as="geometry">
            <mxPoint x="700" y="1150" as="sourcePoint" />
            <mxPoint x="700" y="610" as="targetPoint" />
          </mxGeometry>
        </mxCell>
        <mxCell id="B9jsR6x07uflWmSMTbUq-21" value="" style="endArrow=classic;html=1;" parent="1" edge="1">
          <mxGeometry width="50" height="50" relative="1" as="geometry">
            <mxPoint x="630" y="625" as="sourcePoint" />
            <mxPoint x="450" y="625" as="targetPoint" />
          </mxGeometry>
        </mxCell>
        <mxCell id="B9jsR6x07uflWmSMTbUq-22" value="Połączenie&lt;br&gt;" style="text;html=1;strokeColor=none;fillColor=none;align=center;verticalAlign=middle;whiteSpace=wrap;rounded=0;" parent="1" vertex="1">
          <mxGeometry x="490" y="595" width="40" height="20" as="geometry" />
        </mxCell>
        <mxCell id="B9jsR6x07uflWmSMTbUq-23" value="" style="endArrow=classic;html=1;" parent="1" edge="1">
          <mxGeometry width="50" height="50" relative="1" as="geometry">
            <mxPoint x="610" y="790" as="sourcePoint" />
            <mxPoint x="420" y="790" as="targetPoint" />
            <Array as="points" />
          </mxGeometry>
        </mxCell>
        <mxCell id="B9jsR6x07uflWmSMTbUq-24" value="LOGIN12 HASŁO12" style="text;html=1;strokeColor=none;fillColor=none;align=center;verticalAlign=middle;whiteSpace=wrap;rounded=0;" parent="1" vertex="1">
          <mxGeometry x="455" y="750" width="140" height="20" as="geometry" />
        </mxCell>
        <mxCell id="B9jsR6x07uflWmSMTbUq-25" value="" style="endArrow=classic;html=1;" parent="1" edge="1">
          <mxGeometry width="50" height="50" relative="1" as="geometry">
            <mxPoint x="450" y="850" as="sourcePoint" />
            <mxPoint x="610" y="850" as="targetPoint" />
            <Array as="points">
              <mxPoint x="535" y="850" />
            </Array>
          </mxGeometry>
        </mxCell>
        <mxCell id="B9jsR6x07uflWmSMTbUq-26" value="suma kontrolna md5" style="text;html=1;strokeColor=none;fillColor=none;align=center;verticalAlign=middle;whiteSpace=wrap;rounded=0;" parent="1" vertex="1">
          <mxGeometry x="455" y="820" width="140" height="20" as="geometry" />
        </mxCell>
        <mxCell id="B9jsR6x07uflWmSMTbUq-27" value="" style="endArrow=classic;html=1;" parent="1" edge="1">
          <mxGeometry width="50" height="50" relative="1" as="geometry">
            <mxPoint x="610" y="910" as="sourcePoint" />
            <mxPoint x="440" y="910" as="targetPoint" />
          </mxGeometry>
        </mxCell>
        <mxCell id="B9jsR6x07uflWmSMTbUq-28" value="Dodaje nowy plik" style="text;html=1;strokeColor=none;fillColor=none;align=center;verticalAlign=middle;whiteSpace=wrap;rounded=0;" parent="1" vertex="1">
          <mxGeometry x="460" y="880" width="150" height="20" as="geometry" />
        </mxCell>
        <mxCell id="B9jsR6x07uflWmSMTbUq-29" value="" style="endArrow=classic;html=1;" parent="1" edge="1">
          <mxGeometry width="50" height="50" relative="1" as="geometry">
            <mxPoint x="360" y="950" as="sourcePoint" />
            <mxPoint x="190" y="950" as="targetPoint" />
          </mxGeometry>
        </mxCell>
        <mxCell id="B9jsR6x07uflWmSMTbUq-30" value="Został dodany nowy plik będzemy przesyłać ten plik" style="text;html=1;strokeColor=none;fillColor=none;align=center;verticalAlign=middle;whiteSpace=wrap;rounded=0;" parent="1" vertex="1">
          <mxGeometry x="200" y="920" width="150" height="20" as="geometry" />
        </mxCell>
        <mxCell id="B9jsR6x07uflWmSMTbUq-32" value="" style="endArrow=classic;html=1;" parent="1" edge="1">
          <mxGeometry width="50" height="50" relative="1" as="geometry">
            <mxPoint x="205" y="560" as="sourcePoint" />
            <mxPoint x="355" y="560" as="targetPoint" />
          </mxGeometry>
        </mxCell>
        <mxCell id="B9jsR6x07uflWmSMTbUq-33" value="Dodaj /folder" style="text;html=1;strokeColor=none;fillColor=none;align=center;verticalAlign=middle;whiteSpace=wrap;rounded=0;" parent="1" vertex="1">
          <mxGeometry x="220" y="530" width="110" height="20" as="geometry" />
        </mxCell>
        <mxCell id="B9jsR6x07uflWmSMTbUq-34" value="" style="endArrow=classic;html=1;" parent="1" edge="1">
          <mxGeometry width="50" height="50" relative="1" as="geometry">
            <mxPoint x="200" y="610" as="sourcePoint" />
            <mxPoint x="350" y="610" as="targetPoint" />
          </mxGeometry>
        </mxCell>
        <mxCell id="B9jsR6x07uflWmSMTbUq-35" value="Usuń /folder" style="text;html=1;strokeColor=none;fillColor=none;align=center;verticalAlign=middle;whiteSpace=wrap;rounded=0;" parent="1" vertex="1">
          <mxGeometry x="210" y="575" width="130" height="20" as="geometry" />
        </mxCell>
        <mxCell id="B9jsR6x07uflWmSMTbUq-37" value="" style="endArrow=classic;html=1;" parent="1" edge="1">
          <mxGeometry width="50" height="50" relative="1" as="geometry">
            <mxPoint x="340" y="340" as="sourcePoint" />
            <mxPoint x="200" y="340" as="targetPoint" />
          </mxGeometry>
        </mxCell>
        <mxCell id="B9jsR6x07uflWmSMTbUq-38" value="Klucz publiczny" style="text;html=1;strokeColor=none;fillColor=none;align=center;verticalAlign=middle;whiteSpace=wrap;rounded=0;" parent="1" vertex="1">
          <mxGeometry x="195" y="320" width="140" height="20" as="geometry" />
        </mxCell>
        <mxCell id="B9jsR6x07uflWmSMTbUq-39" value="" style="endArrow=classic;html=1;" parent="1" edge="1">
          <mxGeometry width="50" height="50" relative="1" as="geometry">
            <mxPoint x="200" y="380" as="sourcePoint" />
            <mxPoint x="330" y="380" as="targetPoint" />
          </mxGeometry>
        </mxCell>
        <mxCell id="B9jsR6x07uflWmSMTbUq-40" value="Klucz publiczny" style="text;html=1;strokeColor=none;fillColor=none;align=center;verticalAlign=middle;whiteSpace=wrap;rounded=0;" parent="1" vertex="1">
          <mxGeometry x="200" y="360" width="130" height="20" as="geometry" />
        </mxCell>
        <mxCell id="B9jsR6x07uflWmSMTbUq-41" value="Folder folder/LOGIN12" style="text;html=1;strokeColor=none;fillColor=none;align=center;verticalAlign=middle;whiteSpace=wrap;rounded=0;" parent="1" vertex="1">
          <mxGeometry x="490" y="100" width="240" height="110" as="geometry" />
        </mxCell>
        <mxCell id="B9jsR6x07uflWmSMTbUq-42" value="Synchronizacja" style="rounded=0;whiteSpace=wrap;html=1;" parent="1" vertex="1">
          <mxGeometry x="200" y="480" width="150" height="40" as="geometry" />
        </mxCell>
        <mxCell id="B9jsR6x07uflWmSMTbUq-43" value="xyz" style="text;html=1;strokeColor=none;fillColor=none;align=center;verticalAlign=middle;whiteSpace=wrap;rounded=0;" parent="1" vertex="1">
          <mxGeometry x="394" y="230" width="40" height="20" as="geometry" />
        </mxCell>
        <mxCell id="B9jsR6x07uflWmSMTbUq-44" value="zzz" style="text;html=1;strokeColor=none;fillColor=none;align=center;verticalAlign=middle;whiteSpace=wrap;rounded=0;" parent="1" vertex="1">
          <mxGeometry x="130" y="280" width="40" height="20" as="geometry" />
        </mxCell>
        <mxCell id="B9jsR6x07uflWmSMTbUq-45" value="&lt;span style=&quot;color: rgb(0, 0, 0); font-family: helvetica; font-size: 12px; font-style: normal; font-weight: 400; letter-spacing: normal; text-align: center; text-indent: 0px; text-transform: none; word-spacing: 0px; background-color: rgb(248, 249, 250); display: inline; float: none;&quot;&gt;xyz&lt;/span&gt;" style="text;whiteSpace=wrap;html=1;" parent="1" vertex="1">
          <mxGeometry x="130" y="490" width="20" height="30" as="geometry" />
        </mxCell>
        <mxCell id="B9jsR6x07uflWmSMTbUq-46" value="xyzz" style="text;html=1;align=center;verticalAlign=middle;resizable=0;points=[];autosize=1;strokeColor=none;" parent="1" vertex="1">
          <mxGeometry x="120" y="550" width="40" height="20" as="geometry" />
        </mxCell>
        <mxCell id="B9jsR6x07uflWmSMTbUq-47" value="xyzz" style="text;html=1;align=center;verticalAlign=middle;resizable=0;points=[];autosize=1;strokeColor=none;" parent="1" vertex="1">
          <mxGeometry x="360" y="550" width="40" height="20" as="geometry" />
        </mxCell>
        <mxCell id="B9jsR6x07uflWmSMTbUq-48" value="" style="endArrow=none;html=1;entryX=0.5;entryY=1;entryDx=0;entryDy=0;" parent="1" target="B9jsR6x07uflWmSMTbUq-47" edge="1">
          <mxGeometry width="50" height="50" relative="1" as="geometry">
            <mxPoint x="380" y="1130" as="sourcePoint" />
            <mxPoint x="380" y="170" as="targetPoint" />
          </mxGeometry>
        </mxCell>
        <mxCell id="B9jsR6x07uflWmSMTbUq-51" value="" style="endArrow=classic;html=1;" parent="1" edge="1">
          <mxGeometry width="50" height="50" relative="1" as="geometry">
            <mxPoint x="595" y="660" as="sourcePoint" />
            <mxPoint x="455" y="660" as="targetPoint" />
          </mxGeometry>
        </mxCell>
        <mxCell id="B9jsR6x07uflWmSMTbUq-52" value="Klucz publiczny" style="text;html=1;strokeColor=none;fillColor=none;align=center;verticalAlign=middle;whiteSpace=wrap;rounded=0;" parent="1" vertex="1">
          <mxGeometry x="450" y="640" width="140" height="20" as="geometry" />
        </mxCell>
        <mxCell id="B9jsR6x07uflWmSMTbUq-53" value="" style="endArrow=classic;html=1;" parent="1" edge="1">
          <mxGeometry width="50" height="50" relative="1" as="geometry">
            <mxPoint x="455" y="700" as="sourcePoint" />
            <mxPoint x="585" y="700" as="targetPoint" />
          </mxGeometry>
        </mxCell>
        <mxCell id="B9jsR6x07uflWmSMTbUq-54" value="Klucz publiczny" style="text;html=1;strokeColor=none;fillColor=none;align=center;verticalAlign=middle;whiteSpace=wrap;rounded=0;" parent="1" vertex="1">
          <mxGeometry x="455" y="680" width="130" height="20" as="geometry" />
        </mxCell>
      </root>
    </mxGraphModel>
  </diagram>
</mxfile>
